# xmcd
#
# Track frame offsets:
#	150
#	9945
#	23258
#	35128
#	46813
#	58340
#	73008
#	87740
#	98735
#	116595
#	125875
#	137688
#	150075
#	160483
#	174323
#	187480
#	199865
#	211533
#	229153
#	238178
#	248613
#	261368
#	271408
#	281573
#	292988
#	303845
#	316013
#
# Disc length: 4367
#
# Revision: 1
# Processed by: cddbd v1.5.1PL0 Copyright (c) Steve Scherf et al.
# Submitted via: VisiTrax 2.9.3.171 - For more info visit www.synapsa.com
# Normalized: r0:DSETVAR1
#
DISCID=7e110d1b
DTITLE=Various Artist - This Is Soul
DYEAR=1900
DGENRE=Soul
TTITLE0=The Drifters - save the last dance
TTITLE1=Eddie Floyd - knock on wood
TTITLE2=Sam and Dave - hold on i'm coming
TTITLE3=Brook Benton - kiddo
TTITLE4=The Tams - hey girl don't bother me
TTITLE5=Percy Sledge - warm and tender love
TTITLE6=George McCray - rock your baby
TTITLE7=Brook Benton - it's just a matter
TTITLE8=Brook Benton - rainy night in georgia
TTITLE9=Gladys Knight - every beat of my heart
TTITLE10=The Drifters - under the boardwalk
TTITLE11=Archie Bell and The Drells - tighten up
TTITLE12=Soul Survivors - expressway to your heart
TTITLE13=The Moments - girls
TTITLE14=Percy Sledge - when a man loves a woman
TTITLE15=Wilbert Harrison - lets stick together
TTITLE16=The Tams - what kind of fool
TTITLE17=James Brown - please, please, please
TTITLE18=The Drifters - saturday night at the movies
TTITLE19=Sam and Dave - soul sister brown sugar
TTITLE20=Dobie Gray - the in crowd
TTITLE21=Gladys Knight - operator
TTITLE22=The Drifters - there goes my baby
TTITLE23=Sam and Dave - soul man
TTITLE24=James Brown - papa's got a brand new
TTITLE25=Sam and Dave - i thank you
TTITLE26=Jerry Butler - make it easy on yourself
EXTD=
EXTT0=
EXTT1=
EXTT2=
EXTT3=
EXTT4=
EXTT5=
EXTT6=
EXTT7=
EXTT8=
EXTT9=
EXTT10=
EXTT11=
EXTT12=
EXTT13=
EXTT14=
EXTT15=
EXTT16=
EXTT17=
EXTT18=
EXTT19=
EXTT20=
EXTT21=
EXTT22=
EXTT23=
EXTT24=
EXTT25=
EXTT26=
PLAYORDER=
